<mxfile host="app.diagrams.net" agent="Mozilla/5.0 (Windows NT 10.0; Win64; x64) AppleWebKit/537.36 (KHTML, like Gecko) Chrome/129.0.0.0 Safari/537.36" version="24.8.0">
  <diagram name="Page-1" id="ac95JCJoqnev0eYRf0ao">
    <mxGraphModel dx="1900" dy="1267" grid="0" gridSize="10" guides="1" tooltips="1" connect="1" arrows="1" fold="1" page="0" pageScale="1" pageWidth="850" pageHeight="1100" math="0" shadow="0">
      <root>
        <mxCell id="0" />
        <mxCell id="1" parent="0" />
        <mxCell id="arolEhXMrdXBVPWsT49q-1" value="&lt;h1 style=&quot;line-height: 170%;&quot;&gt;User Flow Diagram&lt;/h1&gt;" style="text;html=1;align=center;verticalAlign=middle;whiteSpace=wrap;rounded=0;fontSize=16;" vertex="1" parent="1">
          <mxGeometry x="-348" y="-204" width="324" height="97" as="geometry" />
        </mxCell>
        <mxCell id="arolEhXMrdXBVPWsT49q-21" style="edgeStyle=orthogonalEdgeStyle;rounded=0;orthogonalLoop=1;jettySize=auto;html=1;exitX=1;exitY=0.5;exitDx=0;exitDy=0;fontSize=12;startSize=8;endSize=8;" edge="1" parent="1" source="arolEhXMrdXBVPWsT49q-3" target="arolEhXMrdXBVPWsT49q-9">
          <mxGeometry relative="1" as="geometry" />
        </mxCell>
        <mxCell id="arolEhXMrdXBVPWsT49q-3" value="Start (Problem)" style="ellipse;whiteSpace=wrap;html=1;fillColor=#f5f5f5;fontColor=#333333;strokeColor=#666666;" vertex="1" parent="1">
          <mxGeometry x="-342" y="36" width="120" height="80" as="geometry" />
        </mxCell>
        <mxCell id="arolEhXMrdXBVPWsT49q-6" value="&lt;div&gt;&lt;br&gt;&lt;/div&gt;&lt;div&gt;&lt;span style=&quot;font-size: 12px; background-color: initial;&quot;&gt;&lt;b&gt;Engineer&#39;s Problem&lt;/b&gt;: d&lt;/span&gt;&lt;span style=&quot;background-color: initial; font-size: 12px;&quot;&gt;etermine or verify mechanical properties&amp;nbsp;&lt;/span&gt;&lt;/div&gt;&lt;div style=&quot;line-height: 100%;&quot;&gt;&lt;ol style=&quot;line-height: 100%;&quot;&gt;&lt;li&gt;&lt;span style=&quot;background-color: initial; font-size: 12px;&quot;&gt;Determine experiment to derive mechanical properties for application&lt;/span&gt;&lt;/li&gt;&lt;li&gt;&lt;span style=&quot;background-color: initial; font-size: 12px;&quot;&gt;Conduct mechanical testing&amp;nbsp;&amp;nbsp;&lt;/span&gt;&lt;/li&gt;&lt;li&gt;&lt;span style=&quot;background-color: initial; font-size: 12px;&quot;&gt;Analysis the Results and Generate a Report&amp;nbsp;&amp;nbsp;&lt;/span&gt;&lt;/li&gt;&lt;/ol&gt;&lt;span style=&quot;font-size: 12px;&quot;&gt;Application Aims to Aid in task 3&lt;/span&gt;&lt;/div&gt;" style="text;html=1;align=center;verticalAlign=middle;whiteSpace=wrap;rounded=0;fontSize=16;" vertex="1" parent="1">
          <mxGeometry x="-379" y="194" width="414" height="166" as="geometry" />
        </mxCell>
        <mxCell id="arolEhXMrdXBVPWsT49q-22" style="edgeStyle=orthogonalEdgeStyle;rounded=0;orthogonalLoop=1;jettySize=auto;html=1;fontSize=12;startSize=8;endSize=8;" edge="1" parent="1" source="arolEhXMrdXBVPWsT49q-9" target="arolEhXMrdXBVPWsT49q-12">
          <mxGeometry relative="1" as="geometry" />
        </mxCell>
        <mxCell id="arolEhXMrdXBVPWsT49q-9" value="Conduct Experiment &amp;amp; Record Results&amp;nbsp;" style="rounded=1;whiteSpace=wrap;html=1;" vertex="1" parent="1">
          <mxGeometry x="-150" y="46" width="120" height="60" as="geometry" />
        </mxCell>
        <mxCell id="arolEhXMrdXBVPWsT49q-10" value="" style="endArrow=none;dashed=1;html=1;dashPattern=1 3;strokeWidth=2;rounded=1;fontSize=12;startSize=8;endSize=8;curved=0;" edge="1" parent="1">
          <mxGeometry width="50" height="50" relative="1" as="geometry">
            <mxPoint x="43" y="435" as="sourcePoint" />
            <mxPoint x="43" y="-43" as="targetPoint" />
          </mxGeometry>
        </mxCell>
        <mxCell id="arolEhXMrdXBVPWsT49q-11" value="&lt;font style=&quot;font-size: 17px;&quot;&gt;Application Boundary Line&lt;/font&gt;" style="text;html=1;align=center;verticalAlign=middle;whiteSpace=wrap;rounded=0;fontSize=17;" vertex="1" parent="1">
          <mxGeometry x="-8" y="-90" width="96" height="30" as="geometry" />
        </mxCell>
        <mxCell id="arolEhXMrdXBVPWsT49q-23" style="edgeStyle=orthogonalEdgeStyle;rounded=0;orthogonalLoop=1;jettySize=auto;html=1;exitX=1;exitY=0.5;exitDx=0;exitDy=0;entryX=0;entryY=0.5;entryDx=0;entryDy=0;fontSize=12;startSize=8;endSize=8;" edge="1" parent="1" source="arolEhXMrdXBVPWsT49q-12" target="arolEhXMrdXBVPWsT49q-13">
          <mxGeometry relative="1" as="geometry" />
        </mxCell>
        <mxCell id="arolEhXMrdXBVPWsT49q-35" style="edgeStyle=orthogonalEdgeStyle;rounded=0;orthogonalLoop=1;jettySize=auto;html=1;exitX=1;exitY=0.5;exitDx=0;exitDy=0;entryX=0;entryY=0.5;entryDx=0;entryDy=0;fontSize=12;startSize=8;endSize=8;" edge="1" parent="1" source="arolEhXMrdXBVPWsT49q-12" target="arolEhXMrdXBVPWsT49q-28">
          <mxGeometry relative="1" as="geometry">
            <Array as="points">
              <mxPoint x="228" y="76" />
              <mxPoint x="228" y="285" />
            </Array>
          </mxGeometry>
        </mxCell>
        <mxCell id="arolEhXMrdXBVPWsT49q-12" value="Open Application Load into Main Window" style="shape=process;whiteSpace=wrap;html=1;backgroundOutline=1;" vertex="1" parent="1">
          <mxGeometry x="88" y="46" width="120" height="60" as="geometry" />
        </mxCell>
        <mxCell id="arolEhXMrdXBVPWsT49q-24" value="" style="edgeStyle=none;curved=1;rounded=0;orthogonalLoop=1;jettySize=auto;html=1;fontSize=12;startSize=8;endSize=8;" edge="1" parent="1" source="arolEhXMrdXBVPWsT49q-13" target="arolEhXMrdXBVPWsT49q-14">
          <mxGeometry relative="1" as="geometry" />
        </mxCell>
        <mxCell id="arolEhXMrdXBVPWsT49q-33" style="edgeStyle=orthogonalEdgeStyle;rounded=0;orthogonalLoop=1;jettySize=auto;html=1;entryX=0.5;entryY=0;entryDx=0;entryDy=0;fontSize=12;startSize=8;endSize=8;" edge="1" parent="1" source="arolEhXMrdXBVPWsT49q-13" target="arolEhXMrdXBVPWsT49q-27">
          <mxGeometry relative="1" as="geometry">
            <Array as="points">
              <mxPoint x="500" y="76" />
              <mxPoint x="500" y="193" />
              <mxPoint x="700" y="193" />
            </Array>
          </mxGeometry>
        </mxCell>
        <mxCell id="arolEhXMrdXBVPWsT49q-40" style="edgeStyle=orthogonalEdgeStyle;rounded=0;orthogonalLoop=1;jettySize=auto;html=1;entryX=0;entryY=0.5;entryDx=0;entryDy=0;fontSize=12;startSize=8;endSize=8;startArrow=block;startFill=1;" edge="1" parent="1" source="arolEhXMrdXBVPWsT49q-13" target="arolEhXMrdXBVPWsT49q-39">
          <mxGeometry relative="1" as="geometry">
            <Array as="points">
              <mxPoint x="384" y="-146" />
            </Array>
          </mxGeometry>
        </mxCell>
        <mxCell id="arolEhXMrdXBVPWsT49q-13" value="1. &lt;b&gt;Create samples from Exp. Data&lt;/b&gt;&lt;div&gt;(Properties calculate for individual sample eg. stress, strain, density, uncertainly)&amp;nbsp;&amp;nbsp;&lt;/div&gt;" style="shape=process;whiteSpace=wrap;html=1;backgroundOutline=1;" vertex="1" parent="1">
          <mxGeometry x="261" y="16" width="220" height="120" as="geometry" />
        </mxCell>
        <mxCell id="arolEhXMrdXBVPWsT49q-25" value="" style="edgeStyle=none;curved=1;rounded=0;orthogonalLoop=1;jettySize=auto;html=1;fontSize=12;startSize=8;endSize=8;startArrow=block;startFill=1;" edge="1" parent="1" source="arolEhXMrdXBVPWsT49q-14" target="arolEhXMrdXBVPWsT49q-15">
          <mxGeometry relative="1" as="geometry" />
        </mxCell>
        <mxCell id="arolEhXMrdXBVPWsT49q-14" value="&lt;b&gt;2.&amp;nbsp;&lt;/b&gt;&lt;b&gt;Visualize&lt;/b&gt;&lt;b&gt;, Zero, Remove outliers&lt;/b&gt;&lt;div&gt;&amp;nbsp;&amp;nbsp;&lt;/div&gt;" style="shape=process;whiteSpace=wrap;html=1;backgroundOutline=1;" vertex="1" parent="1">
          <mxGeometry x="520" y="16" width="220" height="120" as="geometry" />
        </mxCell>
        <mxCell id="arolEhXMrdXBVPWsT49q-30" style="edgeStyle=orthogonalEdgeStyle;rounded=0;orthogonalLoop=1;jettySize=auto;html=1;entryX=1;entryY=0.5;entryDx=0;entryDy=0;fontSize=12;startSize=8;endSize=8;" edge="1" parent="1" source="arolEhXMrdXBVPWsT49q-15" target="arolEhXMrdXBVPWsT49q-27">
          <mxGeometry relative="1" as="geometry" />
        </mxCell>
        <mxCell id="arolEhXMrdXBVPWsT49q-15" value="&lt;b&gt;3. Aggregate Samples&amp;nbsp;&lt;/b&gt;&lt;div&gt;(Generate Aggerate KPI&#39;s)&amp;nbsp;&amp;nbsp;&lt;/div&gt;" style="shape=process;whiteSpace=wrap;html=1;backgroundOutline=1;" vertex="1" parent="1">
          <mxGeometry x="779" y="16" width="220" height="120" as="geometry" />
        </mxCell>
        <mxCell id="arolEhXMrdXBVPWsT49q-45" style="edgeStyle=none;curved=1;rounded=0;orthogonalLoop=1;jettySize=auto;html=1;entryX=0.5;entryY=0;entryDx=0;entryDy=0;fontSize=12;startSize=8;endSize=8;" edge="1" parent="1" source="arolEhXMrdXBVPWsT49q-27" target="arolEhXMrdXBVPWsT49q-37">
          <mxGeometry relative="1" as="geometry" />
        </mxCell>
        <mxCell id="arolEhXMrdXBVPWsT49q-27" value="4.&amp;nbsp;&lt;b&gt;Export Samples and Generate Report&lt;/b&gt;&lt;div&gt;&amp;nbsp;&lt;/div&gt;" style="shape=process;whiteSpace=wrap;html=1;backgroundOutline=1;" vertex="1" parent="1">
          <mxGeometry x="590" y="224" width="220" height="120" as="geometry" />
        </mxCell>
        <mxCell id="arolEhXMrdXBVPWsT49q-47" style="edgeStyle=none;curved=1;rounded=0;orthogonalLoop=1;jettySize=auto;html=1;exitX=1;exitY=0.5;exitDx=0;exitDy=0;entryX=0.5;entryY=1;entryDx=0;entryDy=0;fontSize=12;startSize=8;endSize=8;" edge="1" parent="1" source="arolEhXMrdXBVPWsT49q-28" target="arolEhXMrdXBVPWsT49q-14">
          <mxGeometry relative="1" as="geometry" />
        </mxCell>
        <mxCell id="arolEhXMrdXBVPWsT49q-28" value="1.1&amp;nbsp;&lt;b&gt;Import Samples From Past&amp;nbsp;&lt;/b&gt;&lt;div&gt;&amp;nbsp;&lt;/div&gt;" style="shape=process;whiteSpace=wrap;html=1;backgroundOutline=1;" vertex="1" parent="1">
          <mxGeometry x="264" y="224" width="220" height="120" as="geometry" />
        </mxCell>
        <mxCell id="arolEhXMrdXBVPWsT49q-37" value="End (Problem)" style="ellipse;whiteSpace=wrap;html=1;fillColor=#f5f5f5;fontColor=#333333;strokeColor=#666666;" vertex="1" parent="1">
          <mxGeometry x="640" y="399" width="120" height="80" as="geometry" />
        </mxCell>
        <mxCell id="arolEhXMrdXBVPWsT49q-44" style="edgeStyle=orthogonalEdgeStyle;rounded=0;orthogonalLoop=1;jettySize=auto;html=1;entryX=0.5;entryY=0;entryDx=0;entryDy=0;fontSize=12;startSize=8;endSize=8;startArrow=block;startFill=1;" edge="1" parent="1" source="arolEhXMrdXBVPWsT49q-39" target="arolEhXMrdXBVPWsT49q-15">
          <mxGeometry relative="1" as="geometry" />
        </mxCell>
        <mxCell id="arolEhXMrdXBVPWsT49q-39" value="&amp;nbsp;&lt;b&gt;Update Assumption, Configuration, or Settings&amp;nbsp;&lt;/b&gt;&lt;div&gt;&amp;nbsp;&amp;nbsp;&lt;/div&gt;" style="shape=process;whiteSpace=wrap;html=1;backgroundOutline=1;" vertex="1" parent="1">
          <mxGeometry x="512" y="-207" width="220" height="120" as="geometry" />
        </mxCell>
        <mxCell id="arolEhXMrdXBVPWsT49q-41" style="edgeStyle=orthogonalEdgeStyle;rounded=0;orthogonalLoop=1;jettySize=auto;html=1;exitX=0.5;exitY=0;exitDx=0;exitDy=0;entryX=0.538;entryY=1.02;entryDx=0;entryDy=0;entryPerimeter=0;fontSize=12;startSize=8;endSize=8;" edge="1" parent="1" source="arolEhXMrdXBVPWsT49q-14" target="arolEhXMrdXBVPWsT49q-39">
          <mxGeometry relative="1" as="geometry" />
        </mxCell>
      </root>
    </mxGraphModel>
  </diagram>
</mxfile>
